<?xml version="1.0" encoding="UTF-8"?>
<svg id="Calque_1" data-name="Calque 1" xmlns="http://www.w3.org/2000/svg" version="1.1" viewBox="0 0 389 78">
  <defs>
    <style>
      .cls-1 {
        fill: #c6b393;
      }

      .cls-1, .cls-2 {
        stroke-width: 0px;
      }

      .cls-2 {
        fill: #98ead0;
      }
    </style>
  </defs>
  <rect class="cls-1" x="37.51" y="33.51" width="36.49" height="36.49"/>
  <g>
    <rect class="cls-2" x="9" y="5" width="65" height="20.54"/>
    <rect class="cls-2" x="9" y="25.54" width="20.54" height="44.46"/>
  </g>
  <g>
    <path class="cls-1" d="M112.02,50.87h-17.3v11.71h20.3v7.24h-29.31V26.09h29.25v7.3h-20.24v10.42h17.3v7.06Z"/>
    <path class="cls-1" d="M120.31,69.83V26.09h13.46c3.84,0,7.28.87,10.32,2.6,3.03,1.73,5.4,4.2,7.1,7.39,1.7,3.19,2.55,6.82,2.55,10.89v2.01c0,4.07-.84,7.68-2.51,10.84-1.67,3.16-4.03,5.62-7.07,7.36-3.04,1.74-6.48,2.62-10.3,2.64h-13.55ZM129.32,33.39v29.19h4.35c3.52,0,6.22-1.15,8.08-3.45,1.86-2.3,2.81-5.6,2.85-9.88v-2.31c0-4.45-.92-7.81-2.76-10.11s-4.54-3.44-8.08-3.44h-4.45Z"/>
    <path class="cls-1" d="M193.39,26.09v28.8c0,4.79-1.5,8.57-4.49,11.35-2.99,2.78-7.08,4.17-12.27,4.17s-9.16-1.35-12.16-4.05c-3-2.7-4.54-6.42-4.6-11.14v-29.13h9.01v28.86c0,2.86.69,4.95,2.06,6.26,1.37,1.31,3.27,1.97,5.69,1.97,5.07,0,7.64-2.66,7.72-7.99v-29.1h9.04Z"/>
    <path class="cls-2" d="M242.41,51.95h-17.3v17.87h-9.01V26.09h28.47v7.3h-19.46v11.29h17.3v7.27Z"/>
    <path class="cls-2" d="M266.7,45.47c-1.18-.16-2.22-.24-3.12-.24-3.28,0-5.44,1.11-6.46,3.33v21.26h-8.68v-32.5h8.2l.24,3.88c1.74-2.98,4.15-4.48,7.24-4.48.96,0,1.86.13,2.7.39l-.12,8.35Z"/>
    <path class="cls-2" d="M288.81,69.83c-.4-.78-.69-1.75-.87-2.91-2.1,2.34-4.84,3.51-8.2,3.51-3.18,0-5.82-.92-7.91-2.76-2.09-1.84-3.14-4.17-3.14-6.97,0-3.44,1.28-6.09,3.83-7.93,2.55-1.84,6.24-2.77,11.07-2.79h3.99v-1.86c0-1.5-.39-2.7-1.16-3.6s-1.99-1.35-3.65-1.35c-1.46,0-2.61.35-3.44,1.05-.83.7-1.25,1.66-1.25,2.88h-8.68c0-1.88.58-3.62,1.74-5.23,1.16-1.6,2.8-2.86,4.93-3.77,2.12-.91,4.5-1.37,7.15-1.37,4,0,7.18,1.01,9.54,3.02,2.35,2.01,3.53,4.84,3.53,8.49v14.09c.02,3.08.45,5.42,1.29,7v.51h-8.77ZM281.63,63.79c1.28,0,2.46-.29,3.54-.86,1.08-.57,1.88-1.34,2.4-2.3v-5.59h-3.24c-4.35,0-6.66,1.5-6.94,4.51l-.03.51c0,1.08.38,1.97,1.14,2.67.76.7,1.8,1.05,3.12,1.05Z"/>
    <path class="cls-2" d="M311.1,37.33l.27,3.63c2.3-2.82,5.42-4.24,9.34-4.24,4.18,0,7.06,1.65,8.62,4.96,2.28-3.3,5.54-4.96,9.76-4.96,3.52,0,6.15,1.03,7.87,3.08s2.58,5.14,2.58,9.27v20.75h-8.71v-20.72c0-1.84-.36-3.19-1.08-4.04-.72-.85-1.99-1.28-3.81-1.28-2.6,0-4.41,1.24-5.41,3.72l.03,22.32h-8.68v-20.69c0-1.88-.37-3.24-1.11-4.08-.74-.84-2-1.26-3.78-1.26-2.46,0-4.25,1.02-5.35,3.06v22.98h-8.68v-32.5h8.14Z"/>
    <path class="cls-2" d="M371.17,70.43c-4.77,0-8.65-1.46-11.64-4.38-2.99-2.92-4.49-6.82-4.49-11.68v-.84c0-3.26.63-6.18,1.89-8.76,1.26-2.57,3.05-4.55,5.36-5.95,2.31-1.39,4.95-2.09,7.91-2.09,4.45,0,7.94,1.4,10.5,4.21,2.55,2.8,3.83,6.78,3.83,11.92v3.54h-20.69c.28,2.12,1.13,3.83,2.54,5.11s3.2,1.92,5.36,1.92c3.34,0,5.96-1.21,7.84-3.63l4.26,4.78c-1.3,1.84-3.06,3.28-5.29,4.31-2.22,1.03-4.69,1.55-7.39,1.55ZM370.17,43.72c-1.72,0-3.12.58-4.19,1.75-1.07,1.17-1.76,2.84-2.06,5.01h12.07v-.69c-.04-1.93-.56-3.42-1.56-4.48-1-1.06-2.42-1.58-4.26-1.58Z"/>
  </g>
</svg>