<?xml version="1.0" encoding="UTF-8"?>
<svg id="Calque_1" data-name="Calque 1" xmlns="http://www.w3.org/2000/svg" version="1.1" viewBox="0 0 252 81.5">
  <defs>
    <style>
      .cls-1 {
        fill: #c6b393;
      }

      .cls-1, .cls-2 {
        stroke-width: 0px;
      }

      .cls-2 {
        fill: #98ead0;
      }
    </style>
  </defs>
  <rect class="cls-1" x="37.51" y="33.51" width="36.49" height="36.49"/>
  <g>
    <rect class="cls-2" x="9" y="5" width="65" height="20.54"/>
    <rect class="cls-2" x="9" y="25.54" width="20.54" height="44.46"/>
  </g>
  <g>
    <path class="cls-1" d="M123.36,41.74h-25.65s0,17.37,0,17.37h30.11s0,10.73,0,10.73h-43.47s0-64.84,0-64.84h43.38s0,10.82,0,10.82h-30.02s0,15.45,0,15.45h25.65s0,10.46,0,10.46Z"/>
    <path class="cls-1" d="M135.65,69.84V5s19.95,0,19.95,0c5.7,0,10.8,1.28,15.3,3.85,4.5,2.57,8.01,6.22,10.53,10.96,2.52,4.74,3.79,10.12,3.79,16.14v2.98c0,6.03-1.24,11.39-3.72,16.08-2.48,4.69-5.98,8.33-10.49,10.91-4.51,2.58-9.61,3.89-15.28,3.92h-20.09ZM149.01,15.82v43.29s6.46,0,6.46,0c5.23,0,9.22-1.71,11.98-5.12,2.76-3.41,4.17-8.3,4.23-14.65v-3.43c0-6.59-1.37-11.59-4.1-14.99-2.73-3.4-6.72-5.1-11.98-5.1h-6.59Z"/>
    <path class="cls-1" d="M244,5v42.71c0,7.1-2.22,12.71-6.66,16.83-4.44,4.13-10.5,6.19-18.19,6.19-7.57,0-13.58-2-18.04-6.01-4.45-4.01-6.73-9.51-6.81-16.52V5s13.36,0,13.36,0v42.8c0,4.25,1.02,7.34,3.05,9.28,2.03,1.95,4.85,2.92,8.44,2.92,7.51,0,11.33-3.95,11.44-11.85V5s13.4,0,13.4,0Z"/>
  </g>
</svg>