<?xml version="1.0" encoding="UTF-8"?>
<svg id="Calque_1" data-name="Calque 1" xmlns="http://www.w3.org/2000/svg" version="1.1" viewBox="0 0 116 81.5">
  <defs>
    <style>
      .cls-1 {
        fill: #c6b393;
      }

      .cls-1, .cls-2 {
        stroke-width: 0px;
      }

      .cls-2 {
        fill: #98ead0;
      }
    </style>
  </defs>
  <rect class="cls-1" x="37.51" y="33.51" width="36.49" height="36.49"/>
  <g>
    <rect class="cls-2" x="9" y="5" width="65" height="20.54"/>
    <rect class="cls-2" x="9" y="25.54" width="20.54" height="44.46"/>
  </g>
  <g>
    <path class="cls-1" d="M97.25,54.85v10.39h7.04v-12.2s4.35,0,4.35,0v17.61s-26.27,0-26.27,0v-17.57s4.38,0,4.38,0v12.16h6.26v-10.39s4.24,0,4.24,0Z"/>
    <path class="cls-1" d="M108.64,49.87h-26.27s0-8.08,0-8.08c0-2.31.52-4.38,1.56-6.2,1.04-1.82,2.52-3.24,4.44-4.27,1.92-1.02,4.1-1.53,6.54-1.53h1.21c2.44,0,4.61.5,6.51,1.51,1.9,1,3.37,2.42,4.42,4.25,1.05,1.83,1.58,3.89,1.59,6.19v8.14ZM86.75,44.46h17.54v-2.62c0-2.12-.69-3.73-2.07-4.85-1.38-1.12-3.36-1.69-5.94-1.71h-1.39c-2.67,0-4.69.55-6.07,1.66s-2.07,2.72-2.07,4.85v2.67Z"/>
    <path class="cls-1" d="M82.37,5.98h17.3c2.88,0,5.15.9,6.82,2.7,1.67,1.8,2.51,4.26,2.51,7.37s-.81,5.5-2.44,7.31c-1.62,1.8-3.85,2.72-6.69,2.76h-17.5s0-5.41,0-5.41h17.34c1.72,0,2.97-.41,3.76-1.24.79-.82,1.18-1.96,1.18-3.42,0-3.04-1.6-4.59-4.8-4.64h-17.48s0-5.43,0-5.43Z"/>
  </g>
</svg>