<?xml version="1.0" encoding="UTF-8"?>
<svg id="Calque_1" data-name="Calque 1" xmlns="http://www.w3.org/2000/svg" version="1.1" viewBox="0 0 637 181">
  <defs>
    <style>
      .cls-1 {
        fill: #c6b393;
      }

      .cls-1, .cls-2, .cls-3 {
        stroke-width: 0px;
      }

      .cls-2 {
        fill: #353535;
      }

      .cls-3 {
        fill: #98ead0;
      }
    </style>
  </defs>
  <rect class="cls-1" x="82.92" y="79.92" width="83.08" height="83.08"/>
  <g>
    <rect class="cls-3" x="18" y="15" width="148" height="46.77"/>
    <rect class="cls-3" x="18" y="61.77" width="46.77" height="101.23"/>
  </g>
  <g>
    <path class="cls-1" d="M212.02,125.87h-17.3v11.71h20.3v7.24h-29.31v-43.73h29.25v7.3h-20.24v10.42h17.3v7.06Z"/>
    <path class="cls-1" d="M220.31,144.83v-43.73h13.46c3.84,0,7.28.87,10.32,2.6,3.03,1.73,5.4,4.2,7.1,7.39,1.7,3.19,2.55,6.82,2.55,10.89v2.01c0,4.07-.84,7.68-2.51,10.84-1.67,3.16-4.03,5.62-7.07,7.36-3.04,1.74-6.48,2.62-10.3,2.64h-13.55ZM229.32,108.39v29.19h4.35c3.52,0,6.22-1.15,8.08-3.45,1.86-2.3,2.81-5.6,2.85-9.88v-2.31c0-4.45-.92-7.81-2.76-10.11s-4.54-3.44-8.08-3.44h-4.45Z"/>
    <path class="cls-1" d="M293.39,101.09v28.8c0,4.79-1.5,8.57-4.49,11.35-2.99,2.78-7.08,4.17-12.27,4.17s-9.16-1.35-12.16-4.05c-3-2.7-4.54-6.42-4.6-11.14v-29.13h9.01v28.86c0,2.86.69,4.95,2.06,6.26,1.37,1.31,3.27,1.97,5.69,1.97,5.07,0,7.64-2.66,7.72-7.99v-29.1h9.04Z"/>
    <path class="cls-2" d="M342.41,126.95h-17.3v17.87h-9.01v-43.73h28.47v7.3h-19.46v11.29h17.3v7.27Z"/>
    <path class="cls-2" d="M366.7,120.47c-1.18-.16-2.22-.24-3.12-.24-3.28,0-5.44,1.11-6.46,3.33v21.26h-8.68v-32.5h8.2l.24,3.88c1.74-2.98,4.15-4.48,7.24-4.48.96,0,1.86.13,2.7.39l-.12,8.35Z"/>
    <path class="cls-2" d="M388.81,144.83c-.4-.78-.69-1.75-.87-2.91-2.1,2.34-4.84,3.51-8.2,3.51-3.18,0-5.82-.92-7.91-2.76-2.09-1.84-3.14-4.17-3.14-6.97,0-3.44,1.28-6.09,3.83-7.93,2.55-1.84,6.24-2.77,11.07-2.79h3.99v-1.86c0-1.5-.39-2.7-1.16-3.6s-1.99-1.35-3.65-1.35c-1.46,0-2.61.35-3.44,1.05-.83.7-1.25,1.66-1.25,2.88h-8.68c0-1.88.58-3.62,1.74-5.23,1.16-1.6,2.8-2.86,4.93-3.77,2.12-.91,4.5-1.37,7.15-1.37,4,0,7.18,1.01,9.54,3.02,2.35,2.01,3.53,4.84,3.53,8.49v14.09c.02,3.08.45,5.42,1.29,7v.51h-8.77ZM381.63,138.79c1.28,0,2.46-.29,3.54-.86,1.08-.57,1.88-1.34,2.4-2.3v-5.59h-3.24c-4.35,0-6.66,1.5-6.94,4.51l-.03.51c0,1.08.38,1.97,1.14,2.67.76.7,1.8,1.05,3.12,1.05Z"/>
    <path class="cls-2" d="M411.1,112.33l.27,3.63c2.3-2.82,5.42-4.24,9.34-4.24,4.18,0,7.06,1.65,8.62,4.96,2.28-3.3,5.54-4.96,9.76-4.96,3.52,0,6.15,1.03,7.87,3.08s2.58,5.14,2.58,9.27v20.75h-8.71v-20.72c0-1.84-.36-3.19-1.08-4.04-.72-.85-1.99-1.28-3.81-1.28-2.6,0-4.41,1.24-5.41,3.72l.03,22.32h-8.68v-20.69c0-1.88-.37-3.24-1.11-4.08-.74-.84-2-1.26-3.78-1.26-2.46,0-4.25,1.02-5.35,3.06v22.98h-8.68v-32.5h8.14Z"/>
    <path class="cls-2" d="M471.17,145.43c-4.77,0-8.65-1.46-11.64-4.38-2.99-2.92-4.49-6.82-4.49-11.68v-.84c0-3.26.63-6.18,1.89-8.76,1.26-2.57,3.05-4.55,5.36-5.95,2.31-1.39,4.95-2.09,7.91-2.09,4.45,0,7.94,1.4,10.5,4.21,2.55,2.8,3.83,6.78,3.83,11.92v3.54h-20.69c.28,2.12,1.13,3.83,2.54,5.11s3.2,1.92,5.36,1.92c3.34,0,5.96-1.21,7.84-3.63l4.26,4.78c-1.3,1.84-3.06,3.28-5.29,4.31-2.22,1.03-4.69,1.55-7.39,1.55ZM470.17,118.72c-1.72,0-3.12.58-4.19,1.75-1.07,1.17-1.76,2.84-2.06,5.01h12.07v-.69c-.04-1.93-.56-3.42-1.56-4.48-1-1.06-2.42-1.58-4.26-1.58Z"/>
    <path class="cls-2" d="M517.72,133.02l4.26-20.69h8.38l-8.29,32.5h-7.27l-6.16-20.45-6.16,20.45h-7.24l-8.29-32.5h8.38l4.24,20.66,5.95-20.66h6.28l5.92,20.69Z"/>
    <path class="cls-2" d="M533.31,128.28c0-3.22.62-6.1,1.86-8.62,1.24-2.52,3.03-4.48,5.36-5.86,2.33-1.38,5.04-2.07,8.12-2.07,4.38,0,7.96,1.34,10.74,4.02,2.77,2.68,4.32,6.33,4.64,10.93l.06,2.22c0,4.99-1.39,8.99-4.18,12-2.78,3.01-6.52,4.52-11.2,4.52s-8.42-1.5-11.22-4.5c-2.79-3-4.19-7.09-4.19-12.25v-.39ZM541.99,128.89c0,3.09.58,5.45,1.74,7.08,1.16,1.63,2.82,2.45,4.99,2.45s3.74-.81,4.93-2.42c1.18-1.61,1.77-4.2,1.77-7.75,0-3.03-.59-5.38-1.77-7.04-1.18-1.66-2.84-2.5-4.99-2.5s-3.76.83-4.93,2.48c-1.16,1.66-1.74,4.22-1.74,7.69Z"/>
    <path class="cls-2" d="M587.7,120.47c-1.18-.16-2.22-.24-3.12-.24-3.28,0-5.44,1.11-6.46,3.33v21.26h-8.68v-32.5h8.2l.24,3.88c1.74-2.98,4.16-4.48,7.24-4.48.96,0,1.86.13,2.7.39l-.12,8.35Z"/>
    <path class="cls-2" d="M603.68,131.79l-3.12,3.12v9.91h-8.68v-46.13h8.68v25.56l1.68-2.16,8.32-9.76h10.42l-11.74,13.55,12.76,18.95h-9.97l-8.35-13.04Z"/>
  </g>
</svg>